<svg width="72" height="72" viewBox="0 0 72 72" fill="none" xmlns="http://www.w3.org/2000/svg">
<g clip-path="url(#clip0_436_2511)">
<path d="M36.4351 43.4749C32.7101 43.4749 29.1374 41.9962 26.502 39.3636C23.8666 36.731 22.3841 33.1599 22.3801 29.4349C22.3841 25.7085 23.8662 22.1359 26.5011 19.5009C29.1361 16.8659 32.7087 15.3839 36.4351 15.3799C40.1601 15.3839 43.7312 16.8664 46.3638 19.5018C48.9964 22.1372 50.4751 25.7099 50.4751 29.4349C50.4711 33.1573 48.9907 36.7261 46.3585 39.3583C43.7264 41.9904 40.1575 43.4709 36.4351 43.4749ZM36.4351 16.8799C33.1065 16.8839 29.9154 18.2079 27.5618 20.5615C25.2081 22.9152 23.8841 26.1063 23.8801 29.4349C23.8881 32.7609 25.2138 35.9481 27.5671 38.2986C29.9203 40.649 33.1091 41.9709 36.4351 41.9749C39.7597 41.9709 42.947 40.6485 45.2979 38.2976C47.6487 35.9468 48.9711 32.7595 48.9751 29.4349C48.9751 26.1077 47.6544 22.9165 45.3031 20.5625C42.9519 18.2084 39.7623 16.8839 36.4351 16.8799Z" fill="#F16728"/>
<path d="M36.4349 63.5C36.2536 63.5018 36.0778 63.4379 35.9399 63.32C35.0849 62.555 14.9399 44.615 14.9399 29.435C14.9479 23.7525 17.2088 18.305 21.2269 14.2869C25.245 10.2688 30.6925 8.00794 36.375 8C42.0561 8.00794 47.502 10.2693 51.5177 14.2878C55.5334 18.3064 57.791 23.7539 57.795 29.435C57.795 44.615 37.725 62.555 36.795 63.32C36.6928 63.4105 36.5686 63.4725 36.4349 63.5ZM36.4349 9.5C31.1491 9.50397 26.0808 11.6055 22.3432 15.3432C18.6055 19.0809 16.5039 24.1491 16.5 29.435C16.5 42.65 33.2999 58.835 36.4349 61.745C39.5549 58.835 56.3549 42.65 56.3549 29.435C56.351 24.1517 54.2515 19.0857 50.517 15.3485C46.7826 11.6112 41.7182 9.50794 36.4349 9.5Z" fill="#F16728"/>
<path d="M36.4351 37.8652C35.3281 37.8652 34.2319 37.6472 33.2091 37.2235C32.1863 36.7999 31.257 36.1789 30.4742 35.3961C29.6914 34.6134 29.0705 33.684 28.6468 32.6612C28.2232 31.6385 28.0051 30.5423 28.0051 29.4352C28.0051 27.1981 28.8928 25.0523 30.4733 23.469C32.0538 21.8857 34.198 20.9942 36.4351 20.9902C38.6723 20.9942 40.8164 21.8857 42.3969 23.469C43.9774 25.0523 44.8651 27.1981 44.8651 29.4352C44.8651 31.671 43.977 33.8152 42.396 35.3961C40.8151 36.9771 38.6709 37.8652 36.4351 37.8652ZM36.4351 22.4902C34.5958 22.4942 32.8332 23.2277 31.534 24.5297C30.2348 25.8317 29.5051 27.5959 29.5051 29.4352C29.5051 31.2732 30.2352 33.0358 31.5349 34.3355C32.8345 35.6351 34.5972 36.3652 36.4351 36.3652C38.2731 36.3652 40.0358 35.6351 41.3354 34.3355C42.635 33.0358 43.3651 31.2732 43.3651 29.4352C43.3651 27.5959 42.6355 25.8317 41.3363 24.5297C40.0371 23.2277 38.2744 22.4942 36.4351 22.4902Z" fill="#EFA671"/>
</g>
<defs>
<clipPath id="clip0_436_2511">
<rect width="42.855" height="55.5" fill="white" transform="translate(15 8)"/>
</clipPath>
</defs>
</svg>
