<svg width="72" height="72" viewBox="0 0 72 72" fill="none" xmlns="http://www.w3.org/2000/svg">
<g clip-path="url(#clip0_436_2532)">
<path d="M34.1001 51.7652H33.8901C33.6991 51.7095 33.5381 51.5802 33.4425 51.4058C33.3468 51.2314 33.3244 51.0261 33.3801 50.8352C33.5601 50.2052 37.9551 35.7002 45.4551 35.7002H51.4551C58.9551 35.7002 63.3501 50.2052 63.4551 50.8352C63.5108 51.0261 63.4884 51.2314 63.3927 51.4058C63.2971 51.5802 63.1361 51.7095 62.9451 51.7652C62.7636 51.7907 62.579 51.7503 62.4248 51.6512C62.2707 51.5521 62.1572 51.4009 62.1051 51.2252C62.1051 51.0902 57.8601 37.1702 51.4701 37.1702H45.4701C39.0801 37.1702 34.8801 51.0902 34.8351 51.2252C34.789 51.3835 34.692 51.5221 34.5591 51.6198C34.4263 51.7174 34.2649 51.7685 34.1001 51.7652Z" fill="#F16728"/>
<path d="M48.4251 51.7649C48.267 51.7674 48.113 51.7144 47.9901 51.615L45.4851 49.7999C45.3738 49.7226 45.2866 49.6154 45.2335 49.4907C45.1804 49.366 45.1637 49.2288 45.1851 49.0949L46.3101 40.65L45.2001 36.615C45.1529 36.4223 45.1809 36.2188 45.2784 36.046C45.376 35.8732 45.5357 35.7442 45.7251 35.685C45.9178 35.6378 46.1212 35.6658 46.294 35.7633C46.4668 35.8609 46.5959 36.0206 46.6551 36.2099L47.7951 40.41C47.8181 40.5086 47.8181 40.6113 47.7951 40.7099L46.7151 48.855L48.4101 50.0849L50.1051 48.855L49.0251 40.7099C49.002 40.6113 49.002 40.5086 49.0251 40.41L50.1651 36.2099C50.2242 36.0206 50.3534 35.8609 50.5261 35.7633C50.6989 35.6658 50.9024 35.6378 51.0951 35.685C51.2845 35.7442 51.4442 35.8732 51.5417 36.046C51.6392 36.2188 51.6673 36.4223 51.6201 36.615L50.5101 40.65L51.6351 49.0949C51.6565 49.2288 51.6397 49.366 51.5866 49.4907C51.5336 49.6154 51.4464 49.7226 51.3351 49.7999L48.8301 51.615C48.7151 51.708 48.5729 51.7606 48.4251 51.7649Z" fill="#F16728"/>
<path d="M49.775 41.355H47.105C46.9061 41.355 46.7153 41.276 46.5746 41.1353C46.434 40.9946 46.355 40.8039 46.355 40.605C46.355 40.4061 46.434 40.2153 46.5746 40.0746C46.7153 39.934 46.9061 39.855 47.105 39.855H49.805C50.0039 39.855 50.1947 39.934 50.3353 40.0746C50.476 40.2153 50.555 40.4061 50.555 40.605C50.5551 40.706 50.5347 40.8061 50.4952 40.8991C50.4556 40.9921 50.3977 41.0761 50.3248 41.1462C50.252 41.2162 50.1657 41.2709 50.0712 41.3067C49.9767 41.3426 49.876 41.359 49.775 41.355Z" fill="#F16728"/>
<path d="M48.425 33.0151C46.8337 33.0151 45.3076 32.383 44.1824 31.2578C43.0572 30.1326 42.425 28.6064 42.425 27.0151C42.425 25.4238 43.0572 23.8978 44.1824 22.7725C45.3076 21.6473 46.8337 21.0151 48.425 21.0151C50.0163 21.0151 51.5425 21.6473 52.6677 22.7725C53.7929 23.8978 54.425 25.4238 54.425 27.0151C54.425 28.6064 53.7929 30.1326 52.6677 31.2578C51.5425 32.383 50.0163 33.0151 48.425 33.0151ZM48.425 22.5151C47.2316 22.5151 46.087 22.9893 45.2431 23.8332C44.3992 24.6771 43.925 25.8217 43.925 27.0151C43.925 28.2086 44.3992 29.3532 45.2431 30.1971C46.087 31.0411 47.2316 31.5151 48.425 31.5151C49.6185 31.5151 50.7631 31.0411 51.607 30.1971C52.4509 29.3532 52.925 28.2086 52.925 27.0151C52.927 26.4229 52.8121 25.8362 52.5868 25.2885C52.3616 24.7408 52.0304 24.2429 51.6123 23.8235C51.1943 23.404 50.6975 23.0712 50.1506 22.8441C49.6037 22.617 49.0173 22.5002 48.425 22.5002V22.5151Z" fill="#F16728"/>
<path d="M47.6001 24.225C47.5157 24.2392 47.4295 24.2392 47.3451 24.225C47.2001 24.1726 47.0749 24.0768 46.9863 23.9506C46.8977 23.8245 46.8502 23.6741 46.8501 23.52V21.855C46.8501 21.6561 46.9291 21.4653 47.0698 21.3246C47.2104 21.184 47.4012 21.105 47.6001 21.105C47.7444 21.105 47.8858 21.1458 48.0079 21.2228C48.13 21.2998 48.2278 21.4097 48.2901 21.5399L48.4251 21.375C48.5557 21.2239 48.7403 21.1299 48.9393 21.1131C49.1383 21.0963 49.3359 21.158 49.4901 21.285C49.5661 21.3472 49.6289 21.424 49.6747 21.5109C49.7205 21.5978 49.7485 21.6931 49.7569 21.7909C49.7653 21.8888 49.7539 21.9874 49.7236 22.0808C49.6932 22.1743 49.6444 22.2607 49.5801 22.3349L48.1701 24C48.0988 24.0788 48.0103 24.1402 47.9114 24.1792C47.8126 24.2183 47.706 24.2339 47.6001 24.225Z" fill="#F16728"/>
<path d="M54.425 42.8852C54.2205 42.8778 54.0264 42.7932 53.8817 42.6485C53.737 42.5038 53.6525 42.3097 53.645 42.1052C53.6489 41.8996 53.7323 41.7034 53.8777 41.5579C54.0232 41.4125 54.2193 41.329 54.425 41.3252C54.6307 41.329 54.8269 41.4125 54.9723 41.5579C55.1178 41.7034 55.2012 41.8996 55.205 42.1052C55.1976 42.3097 55.113 42.5038 54.9683 42.6485C54.8236 42.7932 54.6295 42.8778 54.425 42.8852Z" fill="#F16728"/>
<path d="M28.3401 51.7651H14.2852C14.0874 51.7613 13.8989 51.6811 13.7591 51.5412C13.6192 51.4014 13.539 51.2128 13.5352 51.0151C13.5352 50.8162 13.6142 50.6255 13.7548 50.4848C13.8955 50.3442 14.0862 50.2651 14.2852 50.2651H28.3401C28.5391 50.2651 28.7298 50.3442 28.8705 50.4848C29.0111 50.6255 29.0901 50.8162 29.0901 51.0151C29.0863 51.2128 29.0061 51.4014 28.8662 51.5412C28.7264 51.6811 28.5379 51.7613 28.3401 51.7651Z" fill="#EFA671"/>
<path d="M8.75001 51.7652H8.54001C8.34905 51.7095 8.18804 51.5802 8.09239 51.4058C7.99675 51.2314 7.97431 51.0261 8.03 50.8352C8.21 50.2052 12.53 35.7002 20.03 35.7002H26.03C28.745 35.7002 31.325 37.5602 33.725 41.2202C33.8341 41.3724 33.8823 41.56 33.8601 41.746C33.8379 41.932 33.7469 42.1029 33.605 42.2252C33.4397 42.3338 33.2381 42.3726 33.0443 42.3332C32.8504 42.2939 32.68 42.1796 32.57 42.0152C30.455 38.7902 28.295 37.1702 26.12 37.1702H20.12C13.73 37.1702 9.53 51.0902 9.485 51.2252C9.44119 51.3848 9.34479 51.525 9.2114 51.623C9.078 51.721 8.91543 51.7711 8.75001 51.7652Z" fill="#EFA671"/>
<path d="M23.1049 42.435C22.9924 42.4335 22.8817 42.4071 22.7806 42.3578C22.6794 42.3086 22.5904 42.2376 22.5199 42.15L18.4249 37.005C18.3022 36.8496 18.246 36.652 18.2685 36.4553C18.291 36.2586 18.3903 36.0788 18.5449 35.955C18.621 35.8924 18.709 35.8457 18.8036 35.8178C18.8981 35.7898 18.9974 35.7811 19.0953 35.7923C19.1933 35.8035 19.288 35.8343 19.3738 35.8829C19.4597 35.9315 19.5348 35.9968 19.5949 36.075L23.1049 40.485L26.6149 36.075C26.7386 35.9205 26.9185 35.8211 27.1152 35.7987C27.3118 35.7762 27.5095 35.8324 27.6649 35.955C27.7431 36.0151 27.8084 36.0903 27.857 36.1761C27.9056 36.2619 27.9364 36.3566 27.9475 36.4546C27.9587 36.5526 27.9501 36.6518 27.9222 36.7463C27.8942 36.8409 27.8475 36.9289 27.7849 37.005L23.6599 42.225C23.5871 42.2967 23.5001 42.3524 23.4045 42.3885C23.3089 42.4247 23.2069 42.4405 23.1049 42.435Z" fill="#EFA671"/>
<path d="M23.105 33.0151C21.5137 33.0151 19.9876 32.383 18.8623 31.2578C17.7371 30.1326 17.105 28.6064 17.105 27.0151C17.105 25.4238 17.7371 23.8978 18.8623 22.7725C19.9876 21.6473 21.5137 21.0151 23.105 21.0151C24.6963 21.0151 26.2224 21.6473 27.3476 22.7725C28.4728 23.8978 29.105 25.4238 29.105 27.0151C29.105 28.6064 28.4728 30.1326 27.3476 31.2578C26.2224 32.383 24.6963 33.0151 23.105 33.0151ZM23.105 22.5151C21.9115 22.5151 20.7669 22.9893 19.923 23.8332C19.0791 24.6771 18.605 25.8217 18.605 27.0151C18.605 28.2086 19.0791 29.3532 19.923 30.1971C20.7669 31.0411 21.9115 31.5151 23.105 31.5151C24.2985 31.5151 25.4431 31.0411 26.287 30.1971C27.1309 29.3532 27.605 28.2086 27.605 27.0151C27.607 26.4229 27.492 25.8362 27.2668 25.2885C27.0415 24.7408 26.7103 24.2429 26.2923 23.8235C25.8742 23.404 25.3775 23.0712 24.8305 22.8441C24.2836 22.617 23.6972 22.5002 23.105 22.5002V22.5151Z" fill="#EFA671"/>
<path d="M27.68 27.7802C26.0228 27.8201 24.4003 27.302 23.0728 26.3091C21.7453 25.3163 20.79 23.9061 20.36 22.3052C20.3149 22.1123 20.348 21.9094 20.452 21.7407C20.5559 21.5721 20.7224 21.4515 20.915 21.4052C21.0116 21.383 21.1116 21.3803 21.2092 21.397C21.3068 21.4137 21.4001 21.4496 21.4838 21.5026C21.5675 21.5556 21.6399 21.6247 21.6967 21.7058C21.7536 21.7869 21.7938 21.8784 21.815 21.9752C22.1913 23.3544 23.056 24.5499 24.248 25.3391C25.4401 26.1283 26.8784 26.4574 28.295 26.2651C28.4916 26.2527 28.6852 26.3181 28.8339 26.4472C28.9827 26.5763 29.0747 26.7588 29.09 26.9552C29.0982 27.0541 29.0862 27.1537 29.0549 27.248C29.0235 27.3422 28.9733 27.429 28.9075 27.5033C28.8416 27.5776 28.7613 27.6378 28.6715 27.6802C28.5817 27.7227 28.4843 27.7465 28.385 27.7502L27.68 27.7802Z" fill="#EFA671"/>
</g>
<defs>
<clipPath id="clip0_436_2532">
<rect width="55.5" height="30.765" fill="white" transform="translate(8 21)"/>
</clipPath>
</defs>
</svg>
