<svg width="72" height="72" viewBox="0 0 72 72" fill="none" xmlns="http://www.w3.org/2000/svg">
<g clip-path="url(#clip0_436_2520)">
<path d="M36.25 10C29.2905 10.0079 22.6183 12.7761 17.6972 17.6972C12.7761 22.6183 10.0079 29.2905 10 36.25C10.0079 43.2095 12.7761 49.8817 17.6972 54.8028C22.6183 59.7239 29.2905 62.4921 36.25 62.5C43.2095 62.4921 49.8817 59.7239 54.8028 54.8028C59.7239 49.8817 62.4921 43.2095 62.5 36.25C62.4921 29.2905 59.7239 22.6183 54.8028 17.6972C49.8817 12.7761 43.2095 10.0079 36.25 10ZM50.8 39.07L51.88 41.995L49.675 44.155C49.5913 44.2354 49.5274 44.3342 49.4884 44.4435C49.4493 44.5528 49.4362 44.6697 49.45 44.785L49.885 48.01L46.075 51.31L44.575 45.925L43.855 41.59C43.8259 41.4099 43.7322 41.2466 43.5914 41.1306C43.4506 41.0147 43.2723 40.954 43.09 40.96L40.315 41.065L38.125 38.92L39.775 36.295C39.8685 36.137 39.9055 35.9518 39.88 35.77L39.4 32.77L42.4 29.65C42.5174 29.5211 42.5909 29.3583 42.61 29.185L42.835 26.455L45.52 23.455L52.255 20.92L55.84 21.25C58.8616 25.1652 60.6289 29.9024 60.91 34.84H53.41C53.2791 34.8408 53.1507 34.8758 53.0376 34.9416C52.9244 35.0074 52.8304 35.1016 52.765 35.215L50.86 38.485C50.8069 38.5774 50.7741 38.68 50.7637 38.786C50.7534 38.8921 50.7657 38.9991 50.8 39.1V39.07ZM17.8 19.825L20.17 25.315C20.2074 25.415 20.2675 25.5051 20.3456 25.578C20.4237 25.6509 20.5176 25.7046 20.62 25.735L26.275 27.535L21.175 33.535C21.0841 33.6409 21.0267 33.7714 21.01 33.91L20.53 36.91L18.115 37.885L16.135 33.055C16.0879 32.9408 16.0162 32.8383 15.925 32.755L12.385 29.83C13.3845 26.1181 15.239 22.6917 17.8 19.825ZM24.46 53.32L25.675 48.685C25.7276 48.5293 25.7276 48.3607 25.675 48.205L24.265 44.785L25.12 43.12L28.6 44.35L33.88 48.4L30.43 50.845C30.3072 50.9365 30.2135 51.0615 30.16 51.205L27.325 59.305C26.4297 58.951 25.5535 58.5505 24.7 58.105L24.46 53.32ZM36.25 61C33.7038 60.9946 31.1738 60.5948 28.75 59.815L31.51 51.925L35.59 49.045C35.6868 48.9776 35.766 48.8879 35.8208 48.7835C35.8756 48.679 35.9045 48.563 35.905 48.445C35.9062 48.3262 35.8797 48.2088 35.8276 48.1021C35.7755 47.9953 35.6993 47.9022 35.605 47.83L29.44 43.075L29.23 42.97L25.015 41.47C24.8423 41.4119 24.6548 41.4162 24.4849 41.482C24.3151 41.5477 24.1736 41.6708 24.085 41.83L22.78 44.395C22.7356 44.4914 22.7126 44.5963 22.7126 44.7025C22.7126 44.8086 22.7356 44.9136 22.78 45.01L24.28 48.52L23.095 53.02C23.08 53.0942 23.08 53.1707 23.095 53.245L23.26 57.175C19.701 54.9471 16.7668 51.851 14.7333 48.1775C12.6997 44.504 11.6336 40.3738 11.635 36.175C11.6424 34.5634 11.8031 32.9562 12.115 31.375L14.965 33.715L17.14 39.07C17.1989 39.2082 17.2972 39.3259 17.4225 39.4086C17.5479 39.4913 17.6948 39.5353 17.845 39.535H18.115L21.625 38.11C21.7438 38.057 21.848 37.9762 21.929 37.8743C22.0099 37.7725 22.0652 37.6527 22.09 37.525L22.585 34.345L28.27 27.61C28.3521 27.5175 28.4091 27.4055 28.4354 27.2847C28.4617 27.1638 28.4564 27.0382 28.42 26.92C28.3849 26.8013 28.3215 26.6928 28.2353 26.604C28.1491 26.5152 28.0426 26.4486 27.925 26.41L21.535 24.385L19.045 18.595C23.6626 14.0313 29.8927 11.4713 36.385 11.47C39.8498 11.4719 43.2754 12.2036 46.4388 13.6172C49.6021 15.0309 52.4323 17.0949 54.745 19.675L52.36 19.315C52.2519 19.2857 52.138 19.2857 52.03 19.315L44.965 21.985C44.8486 22.028 44.7452 22.1003 44.665 22.195L41.665 25.585C41.5547 25.7037 41.4908 25.8581 41.485 26.02L41.26 28.72L38.125 31.9C38.0455 31.9859 37.9855 32.0881 37.9492 32.1994C37.913 32.3108 37.9013 32.4287 37.915 32.545L38.41 35.665L36.595 38.575C36.5063 38.7206 36.4699 38.892 36.4917 39.061C36.5135 39.2301 36.5923 39.3867 36.715 39.505L39.565 42.295C39.6367 42.3682 39.7235 42.4249 39.8193 42.4612C39.9152 42.4975 40.0178 42.5124 40.12 42.505L42.55 42.415L43.165 46.18L45.07 52.78C45.1053 52.901 45.1705 53.0112 45.2597 53.1003C45.3488 53.1895 45.459 53.2547 45.58 53.29H45.79C45.9713 53.2918 46.1472 53.2279 46.285 53.11L51.265 48.775C51.3597 48.6922 51.4326 48.5872 51.4771 48.4695C51.5216 48.3517 51.5363 48.2248 51.52 48.1L51.1 44.86L53.38 42.625C53.4835 42.5239 53.5555 42.3951 53.5874 42.2541C53.6194 42.113 53.6098 41.9658 53.56 41.83L52.435 38.83L53.935 36.235H61.09C61.09 39.4935 60.447 42.72 59.1977 45.7295C57.9485 48.739 56.1176 51.4724 53.81 53.7731C51.5024 56.0737 48.7635 57.8963 45.7502 59.1364C42.7369 60.3766 39.5085 61.0099 36.25 61Z" fill="#F16728"/>
<path d="M46.8549 28.0598C46.5685 28.0598 46.2938 27.946 46.0912 27.7434C45.8887 27.5409 45.7749 27.2662 45.7749 26.9798C45.7749 26.692 45.8882 26.4157 46.0903 26.2107C46.2924 26.0058 46.5671 25.8887 46.8549 25.8848C47.1427 25.8887 47.4174 26.0058 47.6195 26.2107C47.8216 26.4157 47.9349 26.692 47.9349 26.9798C47.9349 27.2662 47.8211 27.5409 47.6186 27.7434C47.416 27.946 47.1413 28.0598 46.8549 28.0598Z" fill="#EFA671"/>
<path d="M28.93 49.0901C28.6421 49.0901 28.3659 48.9768 28.1609 48.7747C27.956 48.5725 27.8389 48.2979 27.835 48.0101C27.835 47.7196 27.9503 47.4411 28.1557 47.2357C28.361 47.0304 28.6395 46.915 28.93 46.915C29.2178 46.919 29.4924 47.0361 29.6946 47.241C29.8967 47.4459 30.01 47.7222 30.01 48.0101C30.01 48.2965 29.8962 48.5712 29.6936 48.7737C29.4911 48.9763 29.2164 49.0901 28.93 49.0901Z" fill="#EFA671"/>
<path d="M58.2101 32.3498C57.9223 32.3459 57.6476 32.2288 57.4455 32.0238C57.2434 31.8189 57.1301 31.5426 57.1301 31.2548C57.1301 30.9684 57.2439 30.6937 57.4465 30.4912C57.649 30.2886 57.9237 30.1748 58.2101 30.1748C58.498 30.1748 58.7742 30.2881 58.9791 30.4902C59.1841 30.6923 59.3012 30.967 59.3051 31.2548C59.3051 31.5452 59.1898 31.8238 58.9844 32.0291C58.779 32.2345 58.5005 32.3498 58.2101 32.3498Z" fill="#EFA671"/>
<path d="M20.455 29.74C20.1672 29.736 19.8925 29.6189 19.6904 29.414C19.4883 29.2091 19.375 28.9328 19.375 28.6449C19.375 28.3585 19.4888 28.0838 19.6913 27.8813C19.8939 27.6787 20.1686 27.5649 20.455 27.5649C20.7428 27.5649 21.0191 27.6782 21.224 27.8803C21.4289 28.0825 21.5461 28.3571 21.55 28.6449C21.55 28.7887 21.5217 28.9311 21.4666 29.064C21.4116 29.1968 21.331 29.3175 21.2293 29.4192C21.1276 29.5209 21.0069 29.6016 20.874 29.6566C20.7412 29.7116 20.5988 29.74 20.455 29.74Z" fill="#EFA671"/>
<path d="M41.6349 38.9201C41.3485 38.9201 41.0738 38.8064 40.8713 38.6038C40.6687 38.4013 40.5549 38.1266 40.5549 37.8401C40.5549 37.5523 40.6682 37.276 40.8703 37.0711C41.0725 36.8662 41.3471 36.7491 41.6349 36.7451C41.9253 36.7451 42.2039 36.8605 42.4092 37.0658C42.6146 37.2712 42.7299 37.5497 42.7299 37.8401C42.726 38.1279 42.6089 38.4026 42.404 38.6047C42.199 38.8069 41.9228 38.9202 41.6349 38.9201Z" fill="#EFA671"/>
</g>
<defs>
<clipPath id="clip0_436_2520">
<rect width="52.5" height="52.5" fill="white" transform="translate(10 10)"/>
</clipPath>
</defs>
</svg>
